<svg version="1.1" id="svg-draw" xmlns="http://www.w3.org/2000/svg" xmlns:xlink="http://www.w3.org/1999/xlink" x="0px" y="0px" width="100%" height="100%" viewBox="0 0 200 320" xml:space="preserve">
	<g id="svg-content">
		<g transform="matrix(0.70,0,0,0.70,30,40)">
			
<g id="XMLID_1351_">
	<linearGradient id="XMLID_41_" gradientUnits="userSpaceOnUse" x1="186.821" y1="233.8981" x2="36.4098" y2="80.6667">
		<stop  offset="0" style="stop-color:#742C8C"/>
		<stop  offset="0.3789" style="stop-color:#4E489B"/>
		<stop  offset="0.7445" style="stop-color:#1E6CB6"/>
		<stop  offset="1" style="stop-color:#2AA8E1"/>
	</linearGradient>
	<path id="XMLID_2656_" fill="url(#XMLID_41_)" d="M155.7,112.8c-9-13.5-32.1-29.8-46.6-41.5c-8.8-7.1-17.6-20.7-17.6-39.2
		c0,0-14.7,16.9-14,35.4C58.6,52.9,52.9,35.9,51.2,27.7c-0.3-1.7-0.7-5-0.7-5s-36.8,51.4,15.3,83.9c44.7,27.9,65.6,41,70.7,57.8
		c1.3,4.1,0.6,8.7-1.8,12.2c-1.9,2.7-3.7,4.2-3.7,4.2l0,0c-3.7,3.4-8.9,6-15.6,7.8c-4.5,1-9,1.5-13.3,1.5c0,0,0,0,0,0
		c-29.4,0-46.7-23.8-47.5-40.2l-0.1-1.5l-5.5-0.1V198l5.5,0.1l0.1-1.5c0.2-3.5,1.4-7.8,2.7-8.1c0.4-0.1,0.9-0.2,1.5-0.2
		c2.7,0,6.1,1.5,8.7,2.7c9.2,5,21.4,7.7,35.2,7.7c2.3,0,4.8-0.1,7.2-0.2c9.3-0.6,18.2-3.4,25.8-8.2c3.7-2.5,6.9-5.5,9.5-8.5
		c0.1-4.7-0.9-9.3-2-13.9c-4.2-16.8-16.8-25.9-16.8-25.9l0,0.1c-1.2-1.1-2.5-2.2-3.9-3.3c-21.5-16.4-64.1-38.4-72-50.5
		c-5.7-8.7-15.7-21.7-7.5-47.8c2.8-8.3,7.1-16.3,7.1-16.3C50.7,38.7,57.8,50,57.8,50l0,0c5.3,9.1,12.8,16.3,20.1,21.8
		c0.3,1.8,0.8,3.5,1.4,5.3c7.9,21.7,33.6,38.5,33.6,38.5s40.2,29.1,37.6,59.6c0,0,6.1-7.5,10.5-22.1
		C164.7,141.1,164,125.3,155.7,112.8z M151.2,153.2c0,0-4.4-16.5-22.7-30.8C116.1,112.6,88.4,97.9,81,74
		c8.2,5.7,43.8,25.6,59.7,40.4C154.9,127.6,151.2,153.2,151.2,153.2z M103.1,83.2c-9.1-4.9-16.8-9.1-22.7-13.4
		C79,59.5,81.7,47.7,91,34c0,0-1.5,22.5,13.4,37.4c14.1,13.9,46.8,35,48.6,50.8C145.5,109.5,125.6,95.1,103.1,83.2z"/>
	<linearGradient id="XMLID_42_" gradientUnits="userSpaceOnUse" x1="256.5862" y1="178.7838" x2="99.29" y2="18.5383">
		<stop  offset="0" style="stop-color:#742C8C"/>
		<stop  offset="0.3789" style="stop-color:#4E489B"/>
		<stop  offset="0.7445" style="stop-color:#1E6CB6"/>
		<stop  offset="1" style="stop-color:#2AA8E1"/>
	</linearGradient>
	<path id="XMLID_2321_" fill="url(#XMLID_42_)" d="M76.3,63.8L75,59.3c-0.7-2.4-1.1-4.9-1.2-7.6c-0.6-13.3,2.4-23.6,9-30.5
		c8.9-9.3,22-10.3,27.2-10.3c1.8,0,2.9,0.1,3,0.1c2.7,0.3,26.2,3.6,32,29c0.2,1.1,0.4,2.2,0.4,3.5v1.6h5.6V2.3h-5.2l-0.4,1.1
		c0,0-0.8,2.4-2.6,4c-0.3,0.3-1,0.5-1.9,0.5c-1.9,0-4-0.7-4-0.7c-5.7-2.1-14.9-4.6-26.7-4.6c-4.9,0-9.9,0.5-14.8,1.3
		C77.8,7,62.9,20,56.9,37.3C60.1,45,65.9,54.7,76.3,63.8z"/>
</g>

		</g>
		<text font-family="Lucida Grande, Microsoft Yahei" letter-spacing="4" text-anchor="middle" fill="#3e3a39" stroke="#3e3a39" stroke-width="1" font-size="50" dx="100" dy="250">设备运维</text>
		<text font-family="Lucida Grande, Microsoft Yahei" text-anchor="middle" fill="#888888" font-size="23" dx="100" dy="285"></text>
	</g>
</svg>