<svg width="300" height="300" xmlns="http://www.w3.org/2000/svg">

 <g>
  <title>background</title>
  <rect fill="none" id="canvas_background" height="302" width="302" y="-1" x="-1"/>
 </g>
 <g>
  <title>Layer 1</title>
  <path stroke="#000000" fill="black" stroke-width="1.72665" stroke-opacity="0" id="path604" d="m67.84286,237.1579l0,0l0,0q0.60134,-0.21867 1.96802,-0.21867l0,0l0,0q1.36668,0 2.51469,0.328l0,0l0,0q0.87467,0.164 1.36668,0.492l0,0l0,0q0.492,0.328 1.42135,1.20268l0,0l0,0q1.20268,1.20268 1.50881,1.85868l0,0l0,0q0.2952,0.65601 0.18587,1.80402l0,0l0,0q-0.164,1.03868 -0.60134,1.47601l0,0l0,0q-0.43734,0.43734 -1.53068,0.60134l0,0l0,0q-1.74935,0.21867 -4.20937,2.46002l0,0l0,0q-1.14801,1.03868 -2.24135,1.83682l0,0l0,0q-1.09334,0.78721 -1.09334,0.84187l0,0l0,0q0,0.21867 1.20268,-0.1312l0,0l0,0q1.20268,-0.3608 2.54749,-0.94027l0,0l0,0q1.33388,-0.56854 1.77121,-0.89654l0,0l0,0q1.03868,-0.82001 2.49282,-0.164l0,0l0,0q1.44321,0.65601 4.1219,3.11603l0,0l0,0q0.65601,0.54667 0.54667,0.98401l0,0l0,0q-0.27334,0.98401 -3.28003,2.07735l0,0l0,0q-1.53068,0.54667 -2.37255,1.16988l0,0l0,0q-0.85281,0.63414 -2.21949,2.27415l0,0l0,0q-1.58535,1.85868 -2.29602,2.24135l0,0l0,0q-0.98401,0.60134 -0.60134,0.92934l0,0l0,0q0.164,0.164 0.60134,0.05467l0,0l0,0q1.47601,-0.27334 2.78802,-1.00588l0,0l0,0q1.31201,-0.74347 1.53068,-1.34481l0,0l0,0q0.164,-0.38267 -0.21867,-0.92934l0,0l0,0q-0.71067,-1.09334 0.43734,-1.20268l0,0l0,0q0.76534,-0.05467 1.91335,0.492l0,0l0,0q2.56935,1.20268 4.59204,3.9907l0,0l0,0q2.13202,2.89736 2.62402,4.70137l0,0l0,0q0.328,1.25734 0.60134,1.71655l0,0l0,0q0.27334,0.47014 -0.34987,1.54161l0,0l0,0q-0.63414,1.06054 -0.79814,1.06054l0,0l0,0q-0.60134,0.164 -1.93522,0.1312l0,0l0,0q-1.34481,-0.02187 -1.34481,-0.18587l0,0l0,0q0,-0.164 -0.492,-0.65601l0,0l0,0q-0.492,-0.492 -1.53068,-2.05548l0,0l0,0q-1.03868,-1.55255 -1.53068,-1.82588l0,0l0,0q-0.492,-0.27334 -0.92934,-0.1312l0,0l0,0q-0.43734,0.1312 -0.43734,0.56854l0,0l0,0q0,0.492 -2.04455,1.38855l0,0l0,0q-2.05548,0.90747 -4.24217,1.34481l0,0l0,0q-2.46002,0.54667 -3.06136,0.87467l0,0l0,0q-0.76534,0.38267 -1.88055,0.328l0,0l0,0q-1.12614,-0.05467 -1.83682,-0.54667l0,0l0,0q-0.87467,-0.60134 -1.27921,-1.31201l0,0l0,0q-0.41547,-0.71067 -0.57947,-1.91335l0,0l0,0q-0.10933,-0.98401 -0.0328,-1.53068l0,0l0,0q0.08747,-0.54667 0.5248,-1.69468l0,0l0,0q0.60134,-1.58535 1.01681,-2.21949l0,0l0,0q0.40454,-0.62321 0.87467,-0.62321l0,0l0,0q0.4592,0 1.31201,-0.3608l0,0l0,0q0.84187,-0.34987 1.00588,-0.62321l0,0l0,0q0.27334,-0.38267 0.10933,-0.492l0,0l0,0q-0.164,-0.10933 -0.98401,-0.10933l0,0l0,0q-1.58535,0 -3.28003,-1.20268l0,0l0,0q-1.69468,-1.20268 -1.69468,-2.35069l0,0l0,0q0,-3.00669 1.91335,-3.00669l0,0l0,0q0.71067,0 2.24135,-0.87467l0,0l0,0q1.53068,-0.87467 3.00669,-2.13202l0,0l0,0q1.31201,-1.14801 2.32882,-2.38349l0,0l0,0q1.00588,-1.22454 1.00588,-1.71655l0,0l0,0q0,-0.328 -0.76534,-0.63414l0,0l0,0q-0.76534,-0.2952 -2.78802,-1.66188l0,0l0,0q-1.42135,-0.98401 -1.71655,-1.31201l0,0l0,0q-0.30614,-0.328 -0.41547,-1.14801l0,0l0,0q-0.164,-1.09334 0.30614,-1.45415l0,0l0,0q0.4592,-0.34987 2.07735,-0.51387l0,0l0,0q1.60721,-0.164 2.15388,-0.38267m2.29602,-15.68947l0,0l0,0q0.76534,-0.60134 1.09334,-0.60134l0,0l0,0q0.328,0 0.87467,0.60134l0,0l0,0q1.74935,1.80402 -0.76534,3.38936l0,0l0,0q-0.82001,0.60134 -1.64001,1.42135l0,0l0,0q-0.60134,0.65601 -0.65601,0.82001l0,0l0,0q-0.05467,0.164 0.27334,0.328l0,0l0,0q2.35069,1.42135 7.70806,6.66939l0,0l0,0q3.8267,3.77203 6.15552,5.59791l0,0l0,0q2.31789,1.83682 5.16058,3.31283l0,0l0,0q2.73336,1.42135 3.28003,2.15388l0,0l0,0q0.54667,0.74347 1.31201,1.39948l0,0l0,0q0.492,0.38267 0.63414,0.68881l0,0l0,0q0.1312,0.2952 0.1312,0.89654l0,0l0,0q0,1.80402 -1.14801,1.80402l0,0l0,0q-0.92934,0 -3.52056,-0.63414l0,0l0,0q-2.60216,-0.62321 -3.31283,-1.06054l0,0l0,0q-0.98401,-0.60134 -3.77203,-1.53068l0,0l0,0q-3.88137,-1.31201 -3.88137,-2.13202l0,0l0,0q0,-0.164 0.21867,-0.1968l0,0l0,0q0.21867,-0.02187 0.47014,0.0328l0,0l0,0q0.24054,0.05467 0.40454,0.164l0,0l0,0q0.21867,0.21867 2.26322,0.62321l0,0l0,0q2.05548,0.41547 2.16482,0.25147l0,0l0,0q0.164,-0.164 -1.03868,-1.47601l0,0l0,0q-1.20268,-1.31201 -2.62402,-2.56935l0,0l0,0q-1.91335,-1.58535 -3.44403,-3.44403l0,0l0,0q-1.53068,-1.85868 -2.73336,-3.28003l0,0l0,0q-2.46002,-2.89736 -4.75604,-4.04537l0,0l0,0q-1.20268,-0.65601 -1.71655,-0.71067l0,0l0,0q-0.5248,-0.05467 -0.90747,0.38267l0,0l0,0q-0.87467,0.98401 -5.68538,10.51796l0,0l0,0q-4.81071,9.54488 -5.79472,12.27824l0,0l0,0q-1.36668,3.8267 -2.35069,5.02938l0,0l0,0q-0.65601,0.76534 -2.97389,2.49282l0,0l0,0q-2.32882,1.71655 -2.71149,1.71655l0,0l0,0q-0.38267,0 -1.36668,-0.98401l0,0l0,0q-0.71067,-0.65601 -0.84187,-0.98401l0,0l0,0q-0.14213,-0.328 -0.14213,-1.20268l0,0l0,0q0,-1.20268 0.10933,-1.36668l0,0l0,0q0.21867,-0.21867 0.47014,0.0328l0,0l0,0q0.24054,0.24054 0.18587,0.56854l0,0l0,0q-0.05467,0.54667 0.164,0.87467l0,0l0,0q0.10933,0.21867 0.27334,0.21867l0,0l0,0q0.164,0 0.54667,-0.21867l0,0l0,0q0.65601,-0.328 2.05548,-2.13202l0,0l0,0q1.38855,-1.80402 2.15388,-3.33469l0,0l0,0q0.87467,-1.64001 1.03868,-1.96802l0,0l0,0q0.21867,-0.38267 5.41205,-10.87876l0,0l0,0q5.19338,-10.49609 5.84938,-11.58943l0,0l0,0q0.65601,-1.09334 0.5248,-1.44321l0,0l0,0q-0.14213,-0.3608 -1.23548,-0.25147l0,0l0,0q-0.71067,0.10933 -0.98401,0.05467l0,0l0,0q-0.27334,-0.05467 -0.54667,-0.38267l0,0l0,0q-0.328,-0.328 -0.2952,-0.492l0,0l0,0q0.02187,-0.164 0.56854,-0.65601l0,0l0,0q1.31201,-1.36668 3.28003,-0.76534l0,0l0,0q0.76534,0.27334 1.14801,0.07653l0,0l0,0q0.38267,-0.18587 2.35069,-1.93522l0,0l0,0q1.74935,-1.53068 2.56935,-2.13202zm51.33243,2.02268l0,0l0,0q0.38267,-0.87467 0.54667,-0.87467l0,0l0,0q0.164,0 1.14801,0.57947l0,0l0,0q0.98401,0.56854 1.85868,2.26322l0,0l0,0q0.87467,1.69468 1.38855,2.29602l0,0l0,0q0.5248,0.60134 0.74347,1.36668l0,0l0,0q0.164,0.54667 0.34987,0.71067l0,0l0,0q0.1968,0.164 0.79814,0.27334l0,0l0,0q2.73336,0.492 3.22536,2.38349l0,0l0,0q0.492,1.88055 -1.31201,4.88724l0,0l0,0q-0.71067,1.09334 -0.62321,1.36668l0,0l0,0q0.07653,0.27334 3.4659,1.06054l0,0l0,0q3.38936,0.79814 5.06218,1.25734l0,0l0,0q1.66188,0.47014 2.31789,0.25147l0,0l0,0q0.54667,-0.164 1.09334,0.1312l0,0l0,0q0.54667,0.30614 2.78802,2.16482l0,0l0,0q1.36668,1.03868 1.69468,1.55255l0,0l0,0q0.328,0.5248 0.328,1.45415l0,0l0,0q0,0.71067 -0.1312,0.90747l0,0l0,0q-0.14213,0.18587 -0.85281,0.51387l0,0l0,0q-1.20268,0.492 -1.96802,0.57947l0,0l0,0q-0.76534,0.07653 -1.91335,-0.1968l0,0l0,0q-1.53068,-0.38267 -3.08323,-0.38267l0,0l0,0q-1.56348,0 -2.05548,-0.43734l0,0l0,0q-0.92934,-0.82001 -4.50457,-0.68881l0,0l0,0q-3.58616,0.14213 -4.5155,1.01681l0,0l0,0q-0.328,0.38267 -0.27334,0.89654l0,0l0,0q0.05467,0.5248 0.76534,0.47014l0,0l0,0q3.06136,-0.27334 4.4827,0.14213l0,0l0,0q1.42135,0.40454 2.35069,1.77121l0,0l0,0q0.54667,0.76534 0.63414,1.16988l0,0l0,0q0.07653,0.41547 0.02187,1.50881l0,0l0,0q-0.21867,3.77203 -1.25734,6.06805l0,0l0,0q-0.71067,1.47601 -1.09334,2.78802l0,0l0,0q-0.492,1.47601 -1.64001,3.9579l0,0l0,0q-1.14801,2.49282 -1.69468,3.31283l0,0l0,0q-0.71067,1.03868 -1.85868,2.24135l0,0l0,0q-0.87467,0.92934 -1.14801,1.07148l0,0l0,0q-0.27334,0.1312 -1.09334,0.02187l0,0l0,0q-1.09334,-0.164 -1.42135,-0.54667l0,0l0,0q-0.38267,-0.492 -1.11521,-2.31789l0,0l0,0q-0.74347,-1.83682 -1.23548,-3.64083l0,0l0,0q-0.328,-1.09334 -0.54667,-1.09334l0,0l0,0q-0.328,0 -1.36668,1.80402l0,0l0,0q-0.60134,1.09334 -0.87467,1.29014l0,0l0,0q-0.27334,0.18587 -0.96214,0.18587l0,0l0,0q-0.67787,0 -0.89654,-0.164l0,0l0,0q-0.21867,-0.164 -0.60134,-0.98401l0,0l0,0q-0.60134,-1.31201 -0.27334,-2.78802l0,0l0,0q0.328,-1.47601 1.80402,-3.93603l0,0l0,0q1.36668,-2.35069 1.64001,-3.44403l0,0l0,0q0.27334,-1.09334 -0.38267,-1.91335l0,0l0,0q-0.43734,-0.60134 -0.43734,-0.89654l0,0l0,0q0,-0.30614 -0.492,-1.29014l0,0l-0.43734,-1.03868l0.71067,-0.71067l0,0q0.71067,-0.76534 1.31201,-0.87467l0,0l0,0q0.71067,-0.21867 1.69468,-0.85281l0,0l0,0q0.98401,-0.62321 1.42135,-1.11521l0,0l0,0q0.328,-0.43734 0.328,-0.56854l0,0l0,0q0,-0.14213 -0.328,-0.57947l0,0l0,0q-0.98401,-1.20268 0.10933,-1.64001l0,0l0,0q1.14801,-0.54667 2.24135,0.21867l0,0l0.65601,0.492l1.58535,-0.43734l0,0q2.67869,-0.87467 6.56006,-2.56935l0,0l0,0q0.76534,-0.328 0.41547,-0.57947l0,0l0,0q-0.3608,-0.24054 -2.87549,-1.00588l0,0l0,0q-4.86537,-1.47601 -5.41205,-0.98401l0,0l0,0q-0.328,0.27334 -1.58535,2.07735l0,0l0,0q-1.69468,2.40535 -8.12354,8.05793l0,0l0,0q-6.41792,5.66351 -8.16727,6.26485l0,0l-0.82001,0.27334l-0.87467,-1.53068l0,0q-0.65601,-1.14801 -0.76534,-1.67281l0,0l0,0q-0.10933,-0.51387 -0.10933,-2.15388l0,0l0,0q0,-2.29602 0.3608,-3.91417l0,0l0,0q0.34987,-1.60721 1.27921,-3.4659l0,0l0,0q2.02268,-4.1547 4.10003,-5.13871l0,0l0,0q3.00669,-1.42135 8.1454,-1.53068l0,0l0,0q3.11603,-0.10933 3.22536,-0.10933l0,0l0,0q0.328,-0.10933 2.29602,-2.32882l0,0l0,0q1.96802,-2.20855 2.24135,-2.80989l0,0l0,0q0.38267,-0.98401 0.1968,-1.23548l0,0l0,0q-0.1968,-0.24054 -1.07148,-0.02187l0,0l0,0q-0.98401,0.27334 -2.89736,1.38855l0,0l0,0q-1.91335,1.12614 -2.02268,1.50881l0,0l0,0q-0.164,0.43734 -1.01681,0.87467l0,0l0,0q-0.84187,0.43734 -1.77121,1.42135l0,0l0,0q-0.65601,0.65601 -0.96214,0.78721l0,0l0,0q-0.2952,0.14213 -1.00588,-0.02187l0,0l0,0q-0.87467,-0.10933 -1.69468,-0.82001l0,0l0,0q-0.82001,-0.71067 -1.25734,-1.74935l0,0l0,0q-0.328,-0.71067 -0.328,-1.18081l0,0l0,0q0,-0.4592 0.38267,-1.38855l0,0l0,0q0.38267,-0.98401 1.38855,-1.58535l0,0l0,0q1.01681,-0.60134 1.36668,-1.31201l0,0l0,0q0.3608,-0.71067 1.61815,-2.13202l0,0l0,0q2.35069,-2.73336 3.00669,-4.42804m-1.14801,17.27481l0,0l0,0q-0.92934,-0.328 -3.52056,0.07653l0,0l0,0q-2.60216,0.41547 -4.0235,1.12614l0,0l0,0q-1.64001,0.82001 -3.20349,3.09416l0,0l0,0q-1.55255,2.26322 -1.93522,4.34057l0,0l0,0q-0.21867,1.14801 -0.08747,1.88055l0,0l0,0q0.14213,0.74347 0.57947,0.74347l0,0l0,0q0.27334,0 2.15388,-1.77121l0,0l0,0q1.89148,-1.78215 4.67951,-4.04537l0,0l0,0q2.78802,-2.27415 4.3187,-3.75016l0,0l0,0q0.492,-0.54667 0.76534,-0.82001l0,0l0,0q0.27334,-0.27334 0.38267,-0.47014l0,0l0,0q0.10933,-0.18587 0.08747,-0.27334l0,0l0,0q-0.0328,-0.07653 -0.1968,-0.1312m9.94942,14.04945l0,0l0,0q0,-0.71067 -0.07653,-0.92934l0,0l0,0q-0.08747,-0.21867 -0.3608,-0.21867l0,0l0,0q-0.38267,0 -1.93522,0.98401l0,0l0,0q-1.56348,0.98401 -2.32882,1.69468l0,0l0,0q-0.54667,0.54667 -1.36668,2.02268l0,0l0,0q-0.82001,1.47601 -1.14801,2.62402l0,0l0,0q-0.21867,0.65601 -0.164,0.98401l0,0l0,0q0.05467,0.328 0.43734,1.14801l0,0l0,0q0.43734,0.82001 1.29014,1.72748l0,0l0,0q0.84187,0.89654 1.22454,0.89654l0,0l0,0q0.76534,0 2.60216,-4.53737l0,0l0,0q1.82588,-4.53737 1.82588,-6.39605zm51.16843,-28.91891l0,0l4.3187,-4.26404l1.20268,0.10933l0,0q1.25734,0.10933 1.96802,0.43734l0,0l0,0q0.43734,0.21867 0.54667,0.43734l0,0l0,0q0.10933,0.21867 0.10933,0.87467l0,0l0,0q0,0.92934 -0.84187,2.07735l0,0l0,0q-0.85281,1.14801 -1.67281,2.89736l0,0l0,0q-0.82001,1.74935 -1.85868,3.00669l0,0l0,0q-1.03868,1.25734 -0.98401,1.33388l0,0l0,0q0.05467,0.08747 1.72748,-0.62321l0,0l0,0q1.66188,-0.71067 2.91922,-0.71067l0,0l0,0q0.76534,0 1.34481,0.10933l0,0l0,0q0.56854,0.10933 0.84187,0.328l0,0l0,0q0.27334,0.21867 0.164,0.492l0,0l0,0q-0.164,0.38267 -0.27334,1.09334l0,0l0,0q-0.05467,0.54667 -0.27334,0.73254l0,0l0,0q-0.21867,0.1968 -1.09334,0.41547l0,0l0,0q-2.18669,0.65601 -2.89736,1.96802l0,0l0,0q-0.164,0.27334 0.05467,0.65601l0,0l0,0q0.21867,0.38267 1.09334,1.31201l0,0l0,0q1.14801,1.20268 1.42135,1.80402l0,0l0,0q0.27334,0.60134 0,1.14801l0,0l0,0q-0.43734,0.76534 -2.51469,0l0,0l0,0q-1.25734,-0.492 -4.64671,-0.5248l0,0l0,0q-3.38936,-0.02187 -3.60803,0.2296l0,0l0,0q-0.21867,0.24054 0.71067,0.84187l0,0l0,0q1.14801,0.76534 1.20268,1.61815l0,0l0,0q0.05467,0.84187 -0.98401,1.38855l0,0l-0.76534,0.43734l0.71067,-0.164l0,0q0.71067,-0.164 2.78802,-0.60134l0,0l0,0q2.02268,-0.43734 4.89817,-0.57947l0,0l0,0q2.86456,-0.1312 4.4499,0.08747l0,0l0,0q1.58535,0.21867 3.02856,0.85281l0,0l0,0q1.45415,0.62321 2.21949,1.38855l0,0l0,0q0.54667,0.60134 0.60134,0.82001l0,0l0,0q0.05467,0.21867 -0.21867,0.87467l0,0l-0.38267,0.87467l-1.36668,0l0,0q-1.36668,0 -2.13202,-0.38267l0,0l0,0q-1.64001,-0.76534 -2.84269,-0.38267l0,0l0,0q-0.82001,0.21867 -2.56935,0.328l0,0l0,0q-1.96802,0.10933 -5.43391,0.492l0,0l0,0q-3.47683,0.38267 -4.57017,0.60134l0,0l0,0q-3.28003,0.65601 -1.91335,1.91335l0,0l0,0q0.38267,0.328 0.68881,0.2952l0,0l0,0q0.2952,-0.02187 1.49788,-0.51387l0,0l0,0q4.59204,-1.69468 5.79472,-1.88055l0,0l0,0q1.20268,-0.1968 2.84269,0.51387l0,0l0,0q1.31201,0.60134 1.69468,1.42135l0,0l0,0q0.60134,1.20268 -0.05467,2.02268l0,0l0,0q-0.21867,0.27334 -0.85281,0.68881l0,0l0,0q-0.62321,0.40454 -0.89654,0.40454l0,0l0,0q-0.328,0 -1.42135,1.14801l0,0l0,0q-0.71067,0.71067 -0.87467,1.01681l0,0l0,0q-0.164,0.2952 0,0.62321l0,0l0,0q0.27334,0.43734 0.492,0.56854l0,0l0,0q0.21867,0.14213 0.21867,1.07148l0,0l0,0q0,0.87467 -0.4592,1.47601l0,0l0,0q-0.47014,0.60134 -1.12614,0.60134l0,0l0,0q-0.92934,0 -2.80989,0.40454l0,0l0,0q-1.89148,0.41547 -2.32882,0.68881l0,0l0,0q-0.492,0.328 -1.20268,0.98401l0,0l0,0q-0.71067,0.65601 -0.71067,0.76534l0,0l0,0q0,0.05467 0.41547,-0.02187l0,0l0,0q0.40454,-0.08747 1.09334,-0.25147l0,0l0,0q0.67787,-0.164 1.49788,-0.38267l0,0l0,0q4.64671,-1.14801 5.57605,-1.31201l0,0l0,0q0.92934,-0.164 1.64001,0.21867l0,0l0,0q2.46002,1.14801 3.00669,2.24135l0,0l0,0q0.21867,0.43734 0.21867,0.68881l0,0l0,0q0,0.24054 -0.328,0.84187l0,0l0,0q-0.43734,0.87467 -1.31201,2.67869l0,0l0,0q-0.65601,1.31201 -0.71067,1.64001l0,0l0,0q-0.05467,0.328 0.21867,0.54667l0,0l0,0q0.43734,0.27334 0.62321,0.34987l0,0l0,0q0.1968,0.08747 0.3608,1.07148l0,0l0,0q0.05467,0.65601 -0.02187,0.92934l0,0l0,0q-0.08747,0.27334 -0.57947,0.76534l0,0l0,0q-0.54667,0.54667 -0.82001,0.60134l0,0l0,0q-0.27334,0.05467 -1.14801,-0.05467l0,0l0,0q-1.58535,-0.27334 -8.09073,-0.05467l0,0l0,0q-1.25734,0 -1.96802,0l0,0l0,0q-1.47601,-0.10933 -2.07735,0.328l0,0l0,0q-1.58535,1.09334 -2.13202,-1.09334l0,0l0,0q-0.492,-1.85868 0.164,-4.97471l0,0l0,0q0.492,-2.56935 0.84187,-6.74592l0,0l0,0q0.3608,-4.1875 0.30614,-7.03019l0,0l0,0q-0.05467,-1.69468 -0.1312,-2.20855l0,0l0,0q-0.08747,-0.5248 -0.41547,-0.90747l0,0l-0.54667,-0.54667l0.71067,-0.54667l0,0q0.71067,-0.54667 1.39948,-0.71067l0,0l0,0q0.67787,-0.164 2.59122,-1.03868l0,0l0,0q2.29602,-1.03868 7.21606,-2.07735l0,0l0,0q1.58535,-0.328 1.53068,-0.38267l0,0l0,0q0,-0.05467 -0.328,-0.05467l0,0l0,0q-1.03868,-0.05467 -3.44403,0.3608l0,0l0,0q-2.40535,0.40454 -4.04537,0.89654l0,0l0,0q-1.85868,0.54667 -4.4827,1.14801l0,0l0,0q-2.62402,0.60134 -4.97471,1.80402l0,0l0,0q-1.53068,0.76534 -1.94615,1.07148l0,0l0,0q-0.40454,0.2952 -0.40454,0.73254l0,0l0,0q0,0.60134 -0.328,1.53068l0,0l0,0q-0.328,0.92934 -0.328,2.46002l0,0l0,1.53068l-0.98401,0.60134l0,0q-0.98401,0.65601 -1.27921,0.65601l0,0l0,0q-0.30614,0 -1.23548,-1.09334l0,0l0,0q-0.65601,-0.71067 -0.78721,-1.09334l0,0l0,0q-0.14213,-0.38267 -0.14213,-1.20268l0,0l0,0q0,-1.14801 0.47014,-2.43815l0,0l0,0q0.4592,-1.27921 0.67787,-2.37255l0,0l0,0q0.27334,-1.58535 0.87467,-2.13202l0,0l0,0q0.60134,-0.54667 1.25734,0.10933l0,0l0,0q0.43734,0.43734 0.98401,0.34987l0,0l0,0q0.54667,-0.07653 2.73336,-0.95121l0,0l0,0q1.53068,-0.60134 3.38936,-0.92934l0,0l0,0q3.71736,-0.76534 5.02938,-1.96802l0,0l0,0q0.98401,-0.92934 0.21867,-1.91335l0,0l0,0q-0.43734,-0.60134 -0.60134,-1.12614l0,0l0,0q-0.164,-0.51387 -0.65601,-0.40454l0,0l0,0q-0.492,0.164 -1.64001,-0.43734l0,0l0,0q-1.14801,-0.60134 -1.80402,-1.31201l0,0l0,0q-0.65601,-0.71067 -1.09334,-0.71067l0,0l0,0q-0.492,0 -1.89148,1.27921l0,0l0,0q-1.38855,1.29014 -1.66188,1.94615l0,0l0,0q-0.27334,0.65601 -1.03868,0.92934l0,0l0,0q-0.492,0.21867 -0.82001,0.1312l0,0l0,0q-0.328,-0.07653 -1.25734,-0.51387l0,0l0,0q-1.36668,-0.76534 -1.96802,-1.88055l0,0l0,0q-0.60134,-1.12614 -0.71067,-3.14883l0,0l0,0q-0.05467,-1.42135 0,-1.69468l0,0l0,0q0.05467,-0.27334 0.492,-0.38267l0,0l0,0q0.60134,-0.164 1.36668,-1.20268l0,0l0,0q0.76534,-1.03868 1.53068,-1.89148l0,0l0,0q0.76534,-0.84187 0.76534,-1.14801l0,0l0,0q0,-0.2952 0.60134,-1.00588l0,0l0,0q0.60134,-0.71067 1.03868,-2.24135l0,0l0,0q0.43734,-1.53068 0.43734,-2.84269l0,0l0,0q0,-1.47601 0.27334,-1.47601l0,0l0,0q0.328,0 1.09334,0.92934l0,0l0,0q0.76534,0.92934 0.87467,1.42135l0,0l0,0q0.164,0.54667 0.27334,0.89654l0,0l0,0q0.10933,0.3608 0.27334,1.67281l0,0l0.164,1.25734l2.02268,0.05467l0,0q2.02268,0 2.56935,0.164l0,0l0,0q0.71067,0.164 1.85868,-0.74347l0,0l0,0q1.14801,-0.89654 4.4827,-4.23124m3.8267,-1.31201l0,0l0,0q0,-0.492 -1.96802,1.58535l0,0l0,0q-1.64001,1.69468 -3.33469,2.70056l0,0l0,0q-1.69468,1.01681 -2.16482,1.70561l0,0l0,0q-0.4592,0.67787 -0.2952,1.93522l0,0l0,0q0.10933,0.82001 0.02187,1.22454l0,0l0,0q-0.07653,0.41547 -0.51387,1.07148l0,0l0,0q-0.54667,0.92934 -0.54667,1.27921l0,0l0,0q0,0.3608 0.43734,0.96214l0,0l0,0q0.43734,0.65601 0.60134,1.85868l0,0l0,0q0.164,1.20268 0.328,1.31201l0,0l0,0q0.164,0.10933 2.42722,-0.21867l0,0l0,0q2.27415,-0.328 3.3675,-0.60134l0,0l0,0q0.76534,-0.21867 0.89654,-0.47014l0,0l0,0q0.14213,-0.24054 -0.2952,-0.78721l0,0l0,0q-0.21867,-0.27334 -0.38267,-0.30614l0,0l0,0q-0.164,-0.02187 -0.60134,0.14213l0,0l0,0q-2.07735,0.82001 -2.84269,0.05467l0,0l0,0q-0.43734,-0.43734 -0.56854,-1.09334l0,0l0,0q-0.14213,-0.65601 -0.3608,-1.42135l0,0l0,0q-0.21867,-0.76534 0.328,-1.53068l0,0l0,0q0.76534,-1.03868 3.11603,-5.11684l0,0l0,0q2.35069,-4.06723 2.35069,-4.2859m-3.93603,30.12159l0,0l0,0q0,-0.10933 -0.328,-0.10933l0,0l0,0q-0.328,0 -0.82001,0.05467l0,0l0,0q-0.492,0.05467 -0.92934,0.164l0,0l0,0q-0.82001,0.27334 -1.53068,0.328l0,0l0,0q-1.31201,0.21867 -1.31201,1.80402l0,0l0,0q0,1.91335 2.89736,0.164l0,0l0,0q0.54667,-0.328 1.27921,-1.20268l0,0l0,0q0.74347,-0.87467 0.74347,-1.20268m-4.92004,7.05206l0,0l0,0q0,-0.164 -0.164,-0.164l0,0l0,0q-0.27334,0 -0.51387,0.3608l0,0l0,0q-0.25147,0.34987 -0.14213,0.48107l0,0l0,0q0.10933,0.14213 0.47014,-0.1312l0,0l0,0q0.34987,-0.27334 0.34987,-0.54667m6.99739,4.42804l0,0l0,0q0,-0.38267 -1.53068,0.21867l0,0l0,0q-0.76534,0.27334 -2.73336,1.03868l0,0l0,0q-3.28003,1.31201 -3.28003,1.91335l0,0l0,0q0,0.21867 0.27334,0.38267l0,0l0,0q0.492,0.43734 2.05548,0.30614l0,0l0,0q1.55255,-0.14213 2.70056,-0.68881l0,0l0,0q0.82001,-0.38267 1.16988,-0.71067l0,0l0,0q0.3608,-0.328 0.74347,-1.09334l0,0l0,0q0.60134,-1.25734 0.60134,-1.36668zm44.42251,-39.30566l0,0l0,0q-0.0328,-0.54667 0.1312,-0.71067l0,0l0,0q0.164,-0.164 0.73254,-0.1312l0,0l0,0q0.57947,0.02187 0.96214,0.18587l0,0l0,0q0.76534,0.43734 1.14801,4.04537l0,0l0,0q0.21867,2.35069 0.328,2.42722l0,0l0,0q0.10933,0.08747 0.98401,-1.00588l0,0l0,0q1.53068,-1.80402 3.06136,-2.87549l0,0l0,0q1.53068,-1.06054 3.93603,-1.93522l0,0l0,0q2.07735,-0.71067 4.42804,-0.82001l0,0l0,0q2.02268,-0.10933 3.02856,0.14213l0,0l0,0q1.01681,0.24054 2.21949,1.06054l0,0l0,0q1.31201,0.82001 1.94615,1.94615l0,0l0,0q0.62321,1.11521 0.89654,2.97389l0,0l0,0q0.328,2.13202 0.164,2.78802l0,0l0,0q-0.76534,3.11603 -1.53068,4.64671l0,0l0,0q-0.54667,1.09334 -0.54667,1.53068l0,0l0,0q0,0.43734 -0.4592,1.03868l0,0l0,0q-0.47014,0.60134 -0.47014,1.14801l0,0l0,0q0,0.492 -1.27921,1.78215l0,0l0,0q-1.29014,1.27921 -2.60216,1.98988l0,0l0,0q-1.36668,0.82001 -1.34481,1.16988l0,0l0,0q0.0328,0.3608 1.50881,1.34481l0,0l0,0q1.69468,1.09334 1.93522,2.54749l0,0l0,0q0.25147,1.44321 -0.89654,3.57523l0,0l0,0q-2.24135,3.93603 -6.77872,6.77872l0,0l0,0q-0.98401,0.60134 -1.93522,1.36668l0,0l0,0q-0.96214,0.76534 -0.96214,0.87467l0,0l0,0q0,0.164 0.4592,0.1968l0,0l0,0q0.47014,0.02187 1.36668,-0.0656l0,0l0,0q0.90747,-0.07653 2.11015,-0.24054l0,0l0,0q2.24135,-0.38267 5.35738,-0.54667l0,0l0,0q2.67869,-0.10933 3.3675,-0.328l0,0l0,0q0.67787,-0.21867 0.56854,-0.82001l0,0l0,0q-0.10933,-0.492 0.164,-0.492l0,0l0,0q0.21867,0 2.24135,0.60134l0,0l0,0q1.53068,0.43734 2.13202,0.89654l0,0l0,0q0.60134,0.47014 0.87467,1.39948l0,0l0,0q0.492,1.91335 0.05467,2.40535l0,0l0,0q-0.43734,0.492 -2.24135,0.10933l0,0l0,0q-1.58535,-0.328 -1.98988,-0.21867l0,0l0,0q-0.41547,0.10933 -2.16482,0.10933l0,0l0,0q-2.89736,0.05467 -8.36407,1.31201l0,0l0,0q-1.53068,0.38267 -5.52138,0.27334l0,0l0,0q-2.56935,-0.05467 -3.35656,-0.1312l0,0l0,0q-0.79814,-0.08747 -1.07148,-0.3608l0,0l0,0q-0.492,-0.492 -0.38267,-1.53068l0,0l0,0q0.10933,-1.03868 0.65601,-1.80402l0,0l0,0q0.60134,-0.76534 1.23548,-1.36668l0,0l0,0q0.62321,-0.60134 0.89654,-0.60134l0,0l0,0q0.328,0 2.07735,-1.55255l0,0l0,0q1.74935,-1.56348 1.74935,-1.83682l0,0l0,0q0,-0.27334 -0.57947,-0.54667l0,0l0,0q-0.56854,-0.27334 -1.22454,-0.27334l0,0l0,0q-0.98401,0 -1.80402,-0.85281l0,0l0,0q-0.82001,-0.84187 -0.82001,-1.88055l0,0l0,0q0,-0.65601 0.65601,-1.53068l0,0l0,0q0.60134,-0.76534 2.35069,-2.13202l0,0l0,0q1.74935,-1.36668 2.89736,-1.85868l0,0l0,0q1.36668,-0.65601 1.80402,-1.20268l0,0l0,0q0.43734,-0.54667 0.43734,-1.53068l0,0l0,0q0,-1.09334 -0.328,-1.23548l0,0l0,0q-0.328,-0.1312 -1.47601,0.41547l0,0l0,0q-1.20268,0.65601 -1.80402,0.65601l0,0l0,0q-0.65601,0 -1.44321,-0.40454l0,0l0,0q-0.79814,-0.41547 -1.07148,-0.85281l0,0l0,0q-0.21867,-0.492 -0.92934,-1.42135l0,0l-0.71067,-0.92934l-0.328,1.36668l0,0q-0.38267,1.64001 -1.74935,4.10003l0,0l0,0q-1.36668,2.46002 -3.06136,4.53737l0,0l0,0q-0.98401,1.14801 -1.36668,1.74935l0,0l0,0q-0.38267,0.60134 -1.91335,2.21949l0,0l0,0q-1.53068,1.60721 -1.53068,1.77121l0,0l0,0q0,0.164 -2.62402,2.13202l0,0l0,0q-3.9907,3.00669 -4.26404,3.93603l0,0l0,0q-0.10933,0.43734 -0.27334,0.43734l0,0l0,0q-0.164,0 -1.42135,0.92934l0,0l0,0q-1.47601,1.14801 -1.64001,0.492l0,0l0,0q-0.05467,-0.10933 -0.05467,-0.328l0,0l0,0q0,-0.54667 -0.328,-0.98401l0,0l0,0q-0.328,-0.43734 -0.34987,-1.89148l0,0l0,0q-0.0328,-1.44321 0.34987,-2.26322l0,0l0,0q0.328,-0.82001 0.98401,-1.36668l0,0l0,0q0.60134,-0.54667 2.32882,-3.06136l0,0l0,0q1.71655,-2.51469 1.64001,-2.76616l0,0l0,0q-0.08747,-0.24054 -1.94615,-1.22454l0,0l0,0q-2.02268,-1.09334 -2.51469,-1.45415l0,0l0,0q-0.492,-0.34987 -0.87467,-1.06054l0,0l0,0q-0.328,-0.65601 -0.328,-0.90747l0,0l0,0q0,-0.24054 0.38267,-1.00588l0,0l0,0q2.67869,-5.19338 6.88806,-7.16139l0,0l0,0q0.05467,-0.05467 0.21867,-0.10933l0,0l0,0q1.03868,-0.492 1.22454,-0.98401l0,0l0,0q0.1968,-0.492 0.41547,-2.89736l0,0l0,0q0.05467,-0.38267 0.05467,-0.60134l0,0l0,0q0.27334,-2.84269 0.71067,-4.04537l0,0l0,0q1.58535,-4.37337 0.21867,-4.70137l0,0l0,0q-0.87467,-0.27334 -1.96802,0.54667l0,0l0,0q-1.09334,0.82001 -1.85868,2.18669l0,0l0,0q-0.76534,1.42135 -1.80402,1.67281l0,0l0,0q-1.03868,0.24054 -3.88137,-0.3608l0,0l0,0q-2.18669,-0.492 -2.73336,-0.492l0,0l0,0q-1.03868,0 -0.65601,-0.92934l0,0l0,0q0.328,-0.87467 1.47601,-1.42135l0,0l0,0q1.09334,-0.492 2.95202,-1.42135l0,0l0,0q3.8267,-1.80402 5.95872,-1.80402l0,0l0,0q2.40535,0 3.93603,1.34481l0,0l0,0q1.53068,1.33388 0.92934,2.91922l0,0l0,0q-0.27334,0.76534 -0.34987,2.43815l0,0l0,0q-0.08747,1.66188 -0.30614,2.70056l0,0l0,0q-0.27334,0.98401 -0.24054,2.51469l0,0l0,0q0.02187,1.53068 0.24054,2.18669l0,0l0,0q0.21867,0.71067 1.25734,1.25734l0,0l0,0q0.65601,0.27334 0.84187,0.492l0,0l0,0q0.1968,0.21867 0.1968,0.60134l0,0l0,0q0,0.492 -0.78721,2.86456l0,0l0,0q-0.79814,2.38349 -1.12614,2.76616l0,0l0,0q-0.21867,0.328 -0.65601,2.07735l0,0l0,0q-0.43734,1.74935 -0.43734,2.51469l0,0l0,0q0,0.82001 0.21867,0.82001l0,0l0,0q0.27334,0 3.17069,-3.6955l0,0l0,0q2.89736,-3.68456 4.53737,-6.08992l0,0l0,0q0.328,-0.492 0.60134,-0.87467l0,0l0,0q0.27334,-0.38267 -0.492,-1.31201l0,0l0,0q-0.76534,-0.92934 -0.92934,-1.98988l0,0l0,0q-0.164,-1.07148 -0.492,-1.89148l0,0l0,0q-0.76534,-1.80402 -0.76534,-8.41874l0,0l0,0q-0.05467,-2.95202 -0.27334,-3.11603l0,0l0,0q-0.164,-0.10933 -0.18587,-0.65601m19.31936,2.62402l0,0l0,0q-0.76534,-0.54667 -1.91335,-0.65601l0,0l0,0q-0.82001,-0.05467 -0.92934,0l0,0l0,0q-0.10933,0.05467 0,0.43734l0,0l0,0q0.21867,0.54667 -0.10933,2.18669l0,0l0,0q-0.328,1.85868 -0.3608,4.42804l0,0l0,0q-0.02187,2.56935 0.30614,3.28003l0,0l0,0q0.328,0.65601 0.87467,0.98401l0,0l0,0q0.54667,0.328 0.92934,0.10933l0,0l0,0q0.87467,-0.43734 1.60721,-2.40535l0,0l0,0q0.74347,-1.96802 0.85281,-4.1547l0,0l0,0q0.10933,-1.85868 -0.164,-2.73336l0,0l0,0q-0.27334,-0.87467 -1.09334,-1.47601m-6.77872,0.71067l0,0l0,0q-0.492,-0.92934 -0.65601,-0.92934l0,0l0,0q-0.164,0 -1.96802,0.98401l0,0l0,0q-3.4987,1.85868 -4.59204,4.70137l0,0l0,0q-0.38267,1.14801 -0.43734,1.69468l0,0l0,0q-0.05467,0.54667 0.21867,1.03868l0,0l0,0q0.21867,0.38267 0.30614,0.38267l0,0l0,0q0.07653,0 0.51387,-0.43734l0,0l0,0q0.492,-0.60134 2.46002,-1.36668l0,0l0,0q4.26404,-1.69468 4.4827,-2.62402l0,0l0,0q0.492,-1.85868 -0.328,-3.44403m-2.78802,9.78542l0,0l0,0q0.21867,-0.38267 0.05467,-0.43734l0,0l0,0q-0.164,0 -0.65601,0.21867l0,0l0,0q-0.43734,0.164 -0.79814,0.65601l0,0l0,0q-0.34987,0.492 -0.18587,0.65601l0,0l0,0q0.164,0.164 0.76534,-0.25147l0,0l0,0q0.60134,-0.40454 0.82001,-0.84187m3.00669,0.54667l0,0l0,0q-0.10933,-0.82001 -0.328,-0.90747l0,0l0,0q-0.21867,-0.07653 -1.27921,0.57947l0,0l0,0q-1.07148,0.65601 -1.45415,1.14801l0,0l0,0q-0.328,0.38267 -0.27334,0.4592l0,0l0,0q0.05467,0.08747 0.76534,0.30614l0,0l0,0q1.31201,0.328 1.96802,-0.07653l0,0l0,0q0.65601,-0.41547 0.60134,-1.50881m-21.04684,8.03607l0,0l0,0q0.10933,-1.80402 -0.10933,-1.80402l0,0l0,0q-0.60134,0 -1.83682,1.56348l0,0l0,0q-1.22454,1.55255 -1.22454,2.26322l0,0l0,0q0,0.43734 0.84187,0.78721l0,0l0,0q0.85281,0.3608 1.61815,0.30614l0,0l0,0q0.43734,-0.05467 0.71067,-3.11603m18.64149,7.92673l0,0q0.71067,-0.05467 1.12614,-0.92934l0,0l0,0q0.40454,-0.87467 0.34987,-1.25734l0,0l0,0q-0.05467,-0.10933 -0.10933,-0.164l0,0l0,0q-0.05467,-0.05467 -0.164,0l0,0l0,0q-0.10933,0.05467 -0.27334,0.164l0,0l0,0q-0.164,0.10933 -0.492,0.328l0,0l0,0q-0.92934,0.71067 -1.20268,1.03868l0,0l0,0q-0.27334,0.328 -0.02187,0.62321l0,0l0,0q0.24054,0.30614 0.78721,0.1968l0,0z"/>
  <g stroke="null" id="svg_6">
   <path stroke="#000000" fill="black" stroke-width="1.72665" id="svg_4" d="m235.45302,71.06295c-2.88206,-5.94579 -7.30122,-11.69979 -11.52823,-16.97429c-25.36212,-28.67408 -62.4446,-40.94926 -99.8153,-30.59207c-28.72452,7.00069 -56.96869,33.66087 -65.32666,62.33495l2.88206,1.3426c2.20958,-6.80889 5.09164,-13.71369 9.31866,-20.04308c8.16583,7.95969 17.19628,14.28909 26.70708,19.17998c-0.67248,3.0688 -1.34496,8.15149 -1.5371,16.49479l3.26633,1.5344c0,-7.67199 0.67248,-14.28909 1.15282,-16.49479c14.9867,7.67199 31.60658,11.22029 48.995,12.08339l0,11.02849l3.0742,0l0,-11.22029c17.19628,-0.1918 32.95154,-3.7401 47.4579,-10.54899c0.86462,5.2745 1.05675,10.35719 0.86462,16.30299l3.0742,-1.0549c0.48034,-5.0827 0,-11.22029 -0.67248,-16.78249c9.51079,-4.8909 18.73338,-11.02849 27.18742,-18.70048c3.93881,6.42529 6.62873,13.23419 8.83831,20.33078l2.88206,-1.5344c-2.01744,-5.84989 -3.93881,-11.41209 -6.82087,-16.68659l0,0zm-92.80229,-47.56636c-12.77713,6.80889 -23.15254,16.30299 -31.31837,28.48228c-7.68549,-4.2196 -10.56755,-6.42529 -14.9867,-11.50799c13.44961,-10.16539 28.91665,-15.72759 46.30508,-16.97429l0,0zm6.62873,0l0,39.41487c-12.39285,-0.1918 -24.4975,-3.5483 -35.16112,-9.30229c8.45404,-13.61779 28.53238,-28.86588 35.16112,-30.11257l0,0zm-51.20457,59.45795c-8.83831,-4.6032 -17.67663,-10.54899 -25.16998,-18.70048c5.09164,-7.95969 12.77713,-16.11119 20.55868,-22.05698c4.22702,4.8909 9.03045,8.63099 16.13953,12.37109c-5.37984,9.01459 -9.60686,18.31688 -11.52823,28.38638l0,0zm3.0742,1.8221c1.5371,-10.16539 5.76412,-19.65948 11.04789,-28.48228c11.52823,5.754 23.63288,9.30229 37.08249,10.16539l0.19214,30.01667c-17.58056,0 -33.52795,-4.6991 -48.32252,-11.69979l0,0zm104.23445,-43.63446c-4.61129,5.2745 -8.64618,8.15149 -15.46705,11.69979c-7.68549,-11.69979 -19.02159,-22.44058 -30.9341,-29.34537c17.00415,1.5344 32.66333,7.67199 46.40114,17.64558l0,0zm-52.74167,-17.45379c13.06533,6.61709 26.51494,17.64558 34.48863,30.87977c-11.72037,7.48019 -25.84246,8.34329 -34.48863,8.34329l0,-39.22307l0,0zm0,72.78804l0,-30.01667c11.24003,-0.1918 24.11322,-2.2057 36.41001,-9.01459c5.09164,8.82279 8.83831,18.31688 10.37541,28.67408c-14.31422,6.52119 -29.78127,10.74079 -46.78542,10.35719l0,0zm50.05175,-11.98749c-2.20958,-9.87769 -5.47591,-19.65948 -10.85575,-28.48228c6.4366,-3.9319 10.85575,-7.09659 16.33167,-12.56289c8.16583,6.42529 15.46705,14.09729 20.27048,22.92008c-7.78156,7.57609 -16.61987,13.33009 -25.74639,18.12508l0,0zm-148.61816,28.00278l53.8945,20.52258c-0.19214,0.1918 -0.48034,0.4795 -0.48034,0.8631l-53.60629,-17.83738c0,8.82279 2.88206,19.17998 4.8995,26.27658l48.13038,4.4114c0,0.6713 -0.19214,0.6713 0,1.3426l-46.78542,-2.3975c2.68992,7.95969 6.14839,15.43989 11.04789,22.53648l39.09993,-6.80889c0,0.4795 0,0.8631 0.48034,1.3426l-37.37069,8.63099c9.89507,14.28909 24.4975,25.60528 39.58027,32.41417c31.31837,14.76859 73.97284,8.15149 99.8153,-14.57679c5.95625,-5.4663 10.85575,-9.87769 14.79457,-16.49479l-37.75497,-8.82279l1.15282,-1.3426l38.90779,7.09659c4.8995,-6.61709 8.83831,-14.96039 11.24003,-22.92008l-47.07362,2.6852c0,-0.1918 0.19214,-0.8631 0.19214,-1.3426l47.93824,-4.8909c1.5371,-5.0827 2.68992,-10.35719 3.26633,-15.91939c0.19214,-3.0688 0.67248,-6.80889 0.67248,-9.87769l-51.68492,17.83738c-0.48034,-0.4795 -0.67248,-0.8631 -0.86462,-1.3426l52.45347,-19.85128c0,-7.67199 -1.34496,-15.63169 -2.88206,-22.92008l-52.3574,22.72828c-5.47591,2.6852 -11.91251,4.2196 -13.73781,10.54899c-2.88206,8.15149 5.95625,12.75469 6.62873,20.23488c0,2.2057 -0.86462,4.2196 -3.26633,4.8909l-16.13953,0l-3.93881,-24.45448c-0.67248,-3.5483 -2.01744,-8.82279 -5.76412,-9.01459l-14.31422,0c-1.72924,0.1918 -2.40172,2.3975 -3.0742,3.7401c-2.01744,0.1918 -4.41916,-0.1918 -5.76412,1.5344c-1.5371,3.2606 -1.34496,8.63099 0.48034,11.69979c0.67248,-0.8631 1.05675,-2.0139 2.20958,-2.2057c1.05675,0 4.41916,-0.1918 6.4366,0.1918c0.86462,0.4795 0.86462,2.2057 0.48034,3.3565l-7.39728,15.24809l-11.91251,0c-1.34496,0 -2.40172,-0.8631 -2.68992,-1.5344c-3.0742,-5.2745 2.88206,-11.89159 5.09164,-16.97429c1.5371,-5.4663 -2.01744,-11.69979 -5.95625,-13.71369c-19.8862,-9.01459 -40.63703,-18.12508 -60.71537,-27.13968c-2.49778,8.63099 -3.55454,16.97429 -3.3624,22.24878l0,0z"/>
  </g>
 </g>
</svg>